<svg xmlns="http://www.w3.org/2000/svg">

    <symbol viewBox="0 0 258 214" id="fleava-logo-barber-ornament">
        <path id="XMLID_233_" d="M132.5,165.8c0,0-0.2,2.8-1.9,5.1l0.9,1.4c0,0,2.2-4,2.2-6C133.6,164.8,132.5,165,132.5,165.8"/>
        <path id="XMLID_228_" d="M128.3,173.5l-1.9,1.7c0,0-1,1-2,2.6c-1,1.6-4.7,8.4-4.7,8.4l-5.5,10.7c0,0,0,3,4,2c0.2,0,5-9.4,5-9.4
				s-1-1.2,0-3.9c1.1-2.7,5.8-10.4,5.8-10.4L128.3,173.5z"/>
        <path id="XMLID_218_" d="M143.1,202c-0.2-1-3-12.2-6-18.3c0,0-4.7-9.8-5.6-11.1c0,0-1.5-2.3-2.1-2.6c-0.8-0.4-2.8-1-1.9,1.6
				c1,2.8,3.5,7.3,3.5,7.3s4.4,9.5,5.6,14c1.2,4.4,2.3,8.6,2.5,9.7c0.2,1.1,0.5,3.2,2.2,3.1C143.1,205.6,143.3,203.1,143.1,202
				 M130.1,173.7c-0.3,0-0.6-0.3-0.6-0.6c0-0.3,0.3-0.6,0.6-0.6c0.3,0,0.6,0.3,0.6,0.6C130.7,173.4,130.4,173.7,130.1,173.7
				 M136.7,187.4c-0.3,0-0.6-0.3-0.6-0.6c0-0.3,0.3-0.6,0.6-0.6c0.3,0,0.6,0.3,0.6,0.6C137.3,187.1,137,187.4,136.7,187.4
				 M139.1,194.4c-0.3,0-0.6-0.3-0.6-0.6c0-0.3,0.3-0.6,0.6-0.6c0.3,0,0.6,0.3,0.6,0.6C139.7,194.2,139.4,194.4,139.1,194.4
				 M141.1,203c-0.3,0-0.6-0.3-0.6-0.6c0-0.3,0.3-0.6,0.6-0.6c0.3,0,0.6,0.3,0.6,0.6C141.7,202.7,141.4,203,141.1,203"/>
        <path id="XMLID_213_" d="M131.8,78.7c-0.7,0-1.3,0.6-1.3,1.3c0,0.7,0.6,1.3,1.3,1.3c0.7,0,1.3-0.6,1.3-1.3
				C133.1,79.3,132.5,78.7,131.8,78.7"/>
        <path id="XMLID_205_" d="M133.6,108.7c4.9-2.4,4.8-8.5,4.1-8.8c-0.7-0.4-3-1.5-3.6-4.5c-0.5-3,2.4-3.1,0.4-4.8
				c-2.1-1.7-0.7-4.7-0.6-5.2c0.1-0.4,0-8.8,0-8.8L132,50.2l-2.1,26.4h0c0,0-0.1,6.6-0.3,8.7c-0.2,2,2.6,3.4,2.6,3.4
				c1.2,1.1,2.2,6.7-0.9,9.5c-3,2.8-3.3,5.5-2.6,7.6c0.7,2,3.1,2.3,3.4,3.6c0.6,2.9-0.9,4.7,0.3,4.7c1.3,0,2.1-0.5,2.1-0.5
				C132.9,110.3,133.5,108.8,133.6,108.7 M131.8,81.5c-0.8,0-1.5-0.7-1.5-1.5c0-0.8,0.7-1.5,1.5-1.5c0.8,0,1.5,0.7,1.5,1.5
				C133.3,80.9,132.6,81.5,131.8,81.5 M132,107.5c-1.9-0.4-3.3-3.1-2.3-5.4c1.1-2.6,2.5-4,4.4-3.6c1.9,0.4,3.2,2.6,2.6,5.3
				C136.3,106,133.7,107.8,132,107.5"/>
        <path id="XMLID_198_" d="M128.7,92.9c0,0,2.6-4.6,2.5-4.7c-1.8-1.1-1.8-2.6-1.8-3.1l0,0.3c0.1,2-0.3,7.3-2.7,8.8
				c-3.4,2-5.1,0.6-5.1,0.6c-1.4,0.3-2,4.1-2,4.1c-0.5,2.4,0.5,7.2,3.9,7.1c3.9-0.1,5-3.9,4.6-7.2
				C127.6,95.6,128.7,92.9,128.7,92.9 M123,105c-1.9-0.3-2.8-1.8-2.7-4.8c0.1-3.5,2.6-3.6,2.6-3.6c1,0,3.8-0.1,4.1,3.3
				C127.4,103.8,125.1,105.4,123,105"/>
        <rect id="XMLID_193_" x="127.1" y="32.7" transform="matrix(0.7079 0.7063 -0.7063 0.7079 133.0088 -51.4719)" width="3.3" height="204.7"/>
        <rect id="XMLID_188_" x="26.4" y="133.4" transform="matrix(0.7071 0.7071 -0.7071 0.7071 133.2106 -51.4673)" width="204.7" height="3.3"/>
        <path id="XMLID_183_" d="M81.6,129c0.1,0,0.2,0.1,0.2,0.2v0.9c0,0.1-0.1,0.2-0.2,0.2h-6.8v4h5.9c0.1,0,0.2,0.1,0.2,0.2v0.9
				c0,0.1-0.1,0.2-0.2,0.2h-5.9v4h6.8c0.1,0,0.2,0.1,0.2,0.2v0.9c0,0.1-0.1,0.1-0.2,0.1h-8c-0.1,0-0.2-0.1-0.2-0.1v-11.3
				c0-0.1,0.1-0.2,0.2-0.2H81.6z"/>
        <path id="XMLID_178_" d="M83.2,139.7c-0.1-0.1-0.1-0.1-0.1-0.2l0.4-0.9c0-0.1,0.1-0.1,0.2-0.1c0.7,0.5,1.8,1.1,3.3,1.1
				c0.8,0,1.5-0.2,1.9-0.5c0.5-0.4,0.8-1,0.8-1.6c0-0.9-0.6-1.4-1.5-1.8c-1-0.4-2.1-0.6-3.4-1.2c-1-0.5-1.7-1.2-1.7-2.5
				c0-0.9,0.3-1.7,1-2.2c0.7-0.6,1.7-0.9,3.1-0.9c1.4,0,2.6,0.4,3.4,0.8c0.1,0.1,0.1,0.1,0.1,0.2l-0.4,0.8
				c-0.1,0.1-0.1,0.1-0.2,0.1c-0.9-0.5-1.9-0.8-2.9-0.8c-1,0-1.7,0.2-2.1,0.6c-0.4,0.3-0.5,0.8-0.5,1.3c0,0.9,0.7,1.3,1.7,1.7
				c1.2,0.4,2.4,0.6,3.4,1.2c0.8,0.5,1.5,1.2,1.5,2.5c0,1.1-0.5,2-1.2,2.6c-0.7,0.6-1.7,0.9-2.9,0.9
				C85.3,140.8,84,140.3,83.2,139.7"/>
        <path id="XMLID_173_" d="M101.3,129c0.1,0,0.2,0.1,0.2,0.2v0.9c0,0.1-0.1,0.2-0.2,0.2h-3.9v10.3c0,0.1-0.1,0.1-0.2,0.1h-1
				c-0.1,0-0.2-0.1-0.2-0.1v-10.3h-3.9c-0.1,0-0.2-0.1-0.2-0.2v-0.9c0-0.1,0.1-0.2,0.2-0.2H101.3z"/>
        <path id="XMLID_168_" d="M162.2,139.5c0.1,0,0.1,0.1,0.1,0.2v0.9c0,0.1-0.1,0.1-0.1,0.1h-7.1c-0.1,0-0.2-0.1-0.2-0.1V140
				c0-1.6,0.3-2.4,1.1-3.2c1.1-1.1,2.6-1.6,3.8-2.5c0.6-0.5,1.1-1.1,1.1-2c0-0.6-0.2-1.1-0.5-1.5c-0.4-0.5-1.1-0.7-1.9-0.7
				c-1.1,0-2,0.5-2.8,1c-0.1,0-0.2,0.1-0.3-0.1l-0.4-0.7c-0.1-0.1,0-0.2,0.1-0.2c0.9-0.6,1.9-1.1,3.4-1.1c1.2,0,2.2,0.4,2.8,1.1
				c0.5,0.6,0.8,1.3,0.8,2.2c0,1.3-0.6,2.1-1.4,2.8c-1.2,1-2.7,1.4-3.7,2.4c-0.5,0.5-0.7,1-0.7,2.1H162.2z"/>
        <path id="XMLID_161_" d="M169,140.8c-2.8,0-4.3-2-4.3-6c0-3.9,1.5-6,4.3-6c2.8,0,4.3,2.1,4.3,6
				C173.3,138.8,171.8,140.8,169,140.8 M171.2,131.3c-0.5-0.8-1.2-1.1-2.2-1.1c-1,0-1.7,0.4-2.2,1.1c-0.5,0.8-0.8,2-0.8,3.6
				c0,1.6,0.3,2.8,0.8,3.6c0.5,0.8,1.2,1.1,2.2,1.1c0.9,0,1.7-0.4,2.2-1.1c0.5-0.8,0.8-2,0.8-3.6
				C172,133.3,171.7,132.1,171.2,131.3"/>
        <path id="XMLID_156_" d="M176.4,131.3c-0.2,0.1-0.2,0-0.2-0.2v-0.8c0-0.1,0-0.2,0.2-0.2l2.8-1.1c0.1,0,0.2-0.1,0.4-0.1h0.6
				c0.1,0,0.2,0.1,0.2,0.2v10.4h2.4c0.1,0,0.2,0.1,0.2,0.2v0.9c0,0.1-0.1,0.1-0.2,0.1h-6.3c-0.1,0-0.2-0.1-0.2-0.1v-0.9
				c0-0.1,0.1-0.2,0.2-0.2h2.5v-9.1L176.4,131.3z"/>
        <path id="XMLID_151_" d="M186.5,129.2c0-0.1,0.1-0.2,0.2-0.2h6c0.1,0,0.2,0.1,0.2,0.2v0.8c0,0.1-0.1,0.2-0.2,0.2h-5l-0.3,3.8
				c0.3-0.2,0.6-0.4,1-0.6c0.4-0.2,0.8-0.2,1.3-0.2c1.2,0,2.1,0.4,2.7,1.1c0.6,0.7,0.9,1.6,0.9,2.7c0,1.1-0.4,2-1,2.7
				c-0.7,0.7-1.8,1.2-3,1.2c-1.5,0-2.5-0.4-3.3-1.1c-0.1-0.1-0.2-0.1-0.1-0.3l0.4-0.8c0-0.1,0.1-0.1,0.2,0c0.8,0.6,1.5,1,2.8,1
				c0.8,0,1.5-0.3,2-0.8c0.5-0.5,0.8-1.2,0.8-2c0-0.8-0.3-1.5-0.7-2c-0.4-0.5-1-0.7-1.8-0.7c-0.7,0-1.2,0.2-1.6,0.4
				c-0.4,0.3-0.6,0.5-0.8,0.8c-0.1,0.1-0.1,0.1-0.2,0.1l-0.6-0.2c-0.1,0-0.2-0.1-0.2-0.2L186.5,129.2z"/>
        <path id="XMLID_146_" d="M14.6,157.2c-3.4,0.7-6.8-1.6-7.6-5.1c-0.3-1.7-0.1-3,0.2-3.9c0-0.1,0.1-0.2,0.2-0.2l1,0.3
				c0.1,0,0.1,0.1,0.1,0.2c-0.3,0.8-0.5,1.9-0.2,3.4c0.5,2.6,3.2,4.4,6,3.9c3-0.6,4.6-3.3,4-5.9c-0.3-1.5-1-2.4-1.6-3
				c-0.1-0.1-0.1-0.2,0-0.3l0.8-0.6c0.1-0.1,0.2,0,0.2,0c0.7,0.8,1.4,1.9,1.8,3.6C20.4,153.2,18.4,156.4,14.6,157.2"/>
        <path id="XMLID_141_" d="M5.4,136c-0.1,0-0.2-0.1-0.2-0.1l-0.1-1.1c0-0.1,0.1-0.2,0.2-0.2l7.3-0.6c1.4-0.1,2.7,0.2,3.6,0.9
				c1.1,0.8,1.8,2.1,1.9,3.9c0.2,1.8-0.3,3.2-1.2,4.2c-0.8,0.9-2,1.4-3.4,1.5l-7.3,0.7c-0.1,0-0.2-0.1-0.2-0.2l-0.1-1.1
				c0-0.1,0.1-0.2,0.2-0.2l7.2-0.6c1.2-0.1,2.1-0.5,2.7-1.2c0.7-0.7,1-1.7,0.9-2.9c-0.1-1.2-0.6-2.2-1.4-2.8
				c-0.7-0.6-1.7-0.8-2.9-0.7L5.4,136z"/>
        <path id="XMLID_136_" d="M5.1,122.2c0-0.1,0.1-0.2,0.2-0.2l0.9,0c0.1,0,0.2,0.1,0.2,0.2l-0.1,4.2l11,0.2
				c0.1,0,0.2,0.1,0.2,0.2l0,1.1c0,0.1-0.1,0.2-0.2,0.2l-11-0.2l-0.1,4.2c0,0.1-0.1,0.2-0.2,0.2l-0.9,0c-0.1,0-0.2-0.1-0.2-0.2
				L5.1,122.2z"/>
        <path id="XMLID_124_" d="M30.8,73.7c-0.1,0.1-0.2,0.1-0.3-0.1L30,72.8c-0.1-0.1,0-0.2,0.1-0.2c0.8-0.4,2-1,2.9-2.4
				c0.5-0.8,0.6-1.5,0.6-2c-0.1-0.7-0.5-1.2-1.1-1.6c-0.8-0.5-1.7-0.2-2.5,0.4c-1,0.7-1.8,1.6-3,2.4c-1,0.6-2.1,0.9-3.3,0.2
				c-0.8-0.5-1.4-1.3-1.5-2.2c-0.1-1,0.2-2.1,0.9-3.4c0.8-1.3,1.8-2.2,2.6-2.6c0.1-0.1,0.2,0,0.3,0.1l0.5,0.8
				c0.1,0.1,0.1,0.2-0.1,0.3c-0.9,0.5-1.8,1.3-2.3,2.2c-0.5,0.9-0.7,1.6-0.6,2.2c0.1,0.5,0.4,0.9,0.9,1.2c0.8,0.5,1.6,0.1,2.5-0.6
				c1-0.8,1.8-1.8,3-2.5c0.9-0.5,2-0.7,3.1,0c1,0.6,1.6,1.5,1.7,2.6c0.1,1-0.2,2.1-0.9,3.1C33,72.4,31.8,73.2,30.8,73.7"/>
        <path id="XMLID_119_" d="M33.5,49.7c0.1-0.1,0.2-0.1,0.2,0l9.6,7.4c0.1,0.1,0.1,0.2,0,0.2l-0.7,0.9c-0.1,0.1-0.2,0.1-0.2,0
				l-4.3-3.3l-4.5,5.9l4.3,3.3c0.1,0.1,0.1,0.2,0,0.3l-0.7,0.9c-0.1,0.1-0.2,0.1-0.2,0l-9.6-7.4c-0.1-0.1-0.1-0.2,0-0.2l0.7-0.9
				c0.1-0.1,0.2-0.1,0.3,0l4.3,3.3l4.5-5.9l-4.3-3.3c-0.1-0.1-0.1-0.2,0-0.3L33.5,49.7z"/>
        <path id="XMLID_112_" d="M45.1,55c0.1,0.1,0,0.2-0.1,0.3l-0.8,0.8c-0.1,0.1-0.1,0.1-0.2,0c0,0-0.1-0.1-0.1-0.1l-5.4-11.7
				c-0.1-0.1-0.1-0.2,0-0.3l0.8-0.9c0.1-0.1,0.2-0.1,0.3-0.1l12,4.9c0,0,0.1,0.1,0.2,0.1c0,0.1,0,0.1,0,0.2L51.1,49
				c-0.1,0.1-0.2,0.1-0.3,0.1l-2.9-1.2l-4.1,4.3L45.1,55z M40.3,44.7l2.9,6.3l3.6-3.7L40.3,44.7z"/>
        <path id="XMLID_107_" d="M56.1,44.3c0,0.2,0,0.2-0.1,0.3l-0.9,0.8c-0.1,0.1-0.2,0.1-0.3,0l-11.5-5.9c-0.2-0.1-0.2-0.2-0.1-0.3
				l0.9-0.8c0.1-0.1,0.2-0.1,0.3,0l10,5.2l0,0L50.6,33c0-0.1,0-0.2,0.1-0.3l0.9-0.8c0.1-0.1,0.2,0,0.3,0.1L56.1,44.3z"/>
        <path id="XMLID_102_" d="M60.7,25.3c0.1-0.1,0.2,0,0.2,0.1l0.5,0.8c0.1,0.1,0,0.2,0,0.2l-5.9,4.2l2.5,3.5l5.2-3.7
				c0.1-0.1,0.2,0,0.2,0l0.6,0.8c0.1,0.1,0,0.2,0,0.2l-5.2,3.7l2.5,3.5l5.9-4.2c0.1,0,0.2,0,0.2,0.1l0.6,0.8c0.1,0.1,0,0.2,0,0.2
				l-7,5c-0.1,0-0.2,0-0.2,0l-7-9.9c-0.1-0.1,0-0.2,0-0.2L60.7,25.3z"/>
        <path id="XMLID_97_" d="M118.9,5.3c0.1,0,0.2,0.1,0.2,0.2l0.1,0.9c0,0.1-0.1,0.2-0.1,0.2l-4.2,0.5l1.3,10.9
				c0,0.1-0.1,0.2-0.2,0.2l-1.1,0.1c-0.1,0-0.2,0-0.2-0.1l-1.3-10.9l-4.2,0.5c-0.1,0-0.2-0.1-0.2-0.2l-0.1-0.9
				c0-0.1,0.1-0.2,0.1-0.2L118.9,5.3z"/>
        <path id="XMLID_90_" d="M127.8,12.5l3.6,4.6c0.1,0.1,0.1,0.3-0.1,0.3l-1.2,0c-0.2,0-0.3,0-0.4-0.2l-3.5-4.6l-3.1,0.1l0.1,4.7
				c0,0.1-0.1,0.2-0.2,0.2l-1.1,0c-0.1,0-0.2-0.1-0.2-0.2l-0.3-12.1c0-0.1,0.1-0.2,0.2-0.2l4.9-0.1c1.2,0,2.2,0.1,3.1,0.6
				c0.9,0.6,1.5,1.6,1.5,3.1c0,1.4-0.5,2.4-1.4,3C129.1,12.2,128.5,12.4,127.8,12.5z M122.9,6.3l0.1,5.1l3.3-0.1
				c0.9,0,1.6-0.1,2.2-0.5c0.6-0.4,1.1-1.1,1-2.1c0-1.1-0.5-1.7-1.1-2.1c-0.6-0.4-1.3-0.4-2.2-0.4L122.9,6.3z"/>
        <path id="XMLID_85_" d="M135,5.1c0.1,0,0.2,0.1,0.2,0.2l-0.6,12.1c0,0.1-0.1,0.2-0.2,0.2l-1.1-0.1c-0.1,0-0.2-0.1-0.2-0.2
				l0.6-12.1c0-0.1,0.1-0.2,0.2-0.2L135,5.1z"/>
        <path id="XMLID_80_" d="M149.5,19c0,0.1-0.1,0.1-0.2,0.1l-1.1-0.1c-0.1,0-0.1-0.1-0.1-0.2l1.3-9.7l-5,6.2
				c-0.1,0.1-0.2,0.2-0.3,0.1l-0.8-0.1c-0.1,0-0.2-0.1-0.3-0.2l-3.3-7.2l-1.3,9.7c0,0.1-0.1,0.2-0.2,0.1l-1.1-0.1
				c-0.1,0-0.1-0.1-0.1-0.2l1.5-12c0-0.1,0.1-0.2,0.2-0.2l1.1,0.1c0.1,0,0.2,0,0.3,0.2l3.6,8.2l5.6-7c0.1-0.2,0.2-0.2,0.3-0.1
				l1.2,0.1c0.1,0,0.2,0.1,0.1,0.2L149.5,19z"/>
        <path id="XMLID_73_" d="M193,36.6c-1.4-0.1-2.7-0.7-3.9-1.5l-3.5-2.3c-0.1-0.1-0.1-0.2,0-0.2l6.7-10.1c0-0.1,0.2-0.1,0.2-0.1
				l3.7,2.5c1.7,1.1,3,2.6,3.2,4.5c0.2,1.3-0.1,2.8-1.1,4.4C197,35.7,195.1,36.8,193,36.6z M187.3,32.5l2.3,1.5
				c1,0.7,2.1,1.1,3.1,1.2c1.7,0.2,3.2-0.6,4.3-2.4c0.8-1.3,1.1-2.4,0.9-3.5c-0.2-1.4-1.2-2.6-2.7-3.6l-2.5-1.6L187.3,32.5z"/>
        <path id="XMLID_66_" d="M204.3,40.3l-0.3,5.8c0,0.2-0.1,0.3-0.3,0.2l-1-0.8c-0.1-0.1-0.2-0.2-0.1-0.4l0.3-5.8l-2.4-2l-3,3.6
				c0,0.1-0.2,0.1-0.2,0l-0.9-0.7c-0.1-0.1-0.1-0.2,0-0.2l7.7-9.3c0.1-0.1,0.2-0.1,0.2,0l3.8,3.1c0.9,0.8,1.6,1.5,1.9,2.5
				c0.3,1,0.1,2.2-0.8,3.3c-0.9,1-1.9,1.5-3,1.4C205.5,40.9,204.9,40.7,204.3,40.3z M204.6,32.4l-3.3,3.9l2.6,2.1
				c0.7,0.6,1.3,1,2,1.1c0.7,0.1,1.5-0.1,2.2-0.9c0.7-0.8,0.8-1.6,0.6-2.3c-0.2-0.7-0.7-1.2-1.4-1.7L204.6,32.4z"/>
        <path id="XMLID_61_" d="M214.6,39.5c0.1,0.1,0.1,0.2,0,0.3l-8.4,8.8c-0.1,0.1-0.2,0-0.2,0l-0.8-0.8c-0.1-0.1-0.1-0.2,0-0.2
				l8.4-8.8c0.1-0.1,0.2-0.1,0.2,0L214.6,39.5z"/>
        <path id="XMLID_56_" d="M223.4,49c0.1-0.1,0.2-0.1,0.3,0l0.7,0.8c0.1,0.1,0.1,0.2,0,0.3l-9,8.1c-0.1,0.1-0.2,0.1-0.2,0l-0.7-0.8
				c-0.1-0.1-0.1-0.2-0.1-0.4l2.1-12.5l-7.4,6.6c-0.1,0.1-0.2,0.1-0.2,0l-0.7-0.8c-0.1-0.1-0.1-0.2,0-0.2l9-8.1
				c0.1-0.1,0.2-0.1,0.2,0l0.7,0.7c0.1,0.1,0.1,0.2,0.1,0.4L216,55.7L223.4,49z"/>
        <path id="XMLID_51_" d="M223.1,59l-1.9-0.3l-3.6,2.6c-0.1,0.1-0.2,0-0.2-0.1l-0.7-0.9c-0.1-0.1,0-0.2,0-0.2l9.8-7.1
				c0.1-0.1,0.2,0,0.2,0l0.7,0.9c0.1,0.1,0,0.2,0,0.3l-4.7,3.4l8.1,1.2c0.2,0,0.3,0.1,0.4,0.2l0.8,1.1c0.1,0.1,0,0.3-0.2,0.2
				l-7.3-1.2l-2.2,8.4c0,0.2-0.2,0.3-0.3,0.1l-0.8-1.1c-0.1-0.1-0.1-0.2-0.1-0.4L223.1,59z"/>
        <path id="XMLID_46_" d="M239.6,114.5c-0.1,0-0.2,0-0.2-0.1l-0.2-1.1c0-0.1,0-0.2,0.1-0.2l9.6-1.8l-7.4-2.8
				c-0.2-0.1-0.2-0.1-0.2-0.3l-0.1-0.8c0-0.1,0-0.2,0.1-0.3l5.9-5.3l-9.6,1.8c-0.1,0-0.2,0-0.2-0.1l-0.2-1.1c0-0.1,0-0.2,0.1-0.2
				l11.9-2.2c0.1,0,0.2,0,0.2,0.1l0.2,1.1c0,0.1,0,0.2-0.1,0.3l-6.6,5.9l8.3,3.1c0.2,0.1,0.2,0.1,0.2,0.3l0.2,1.1
				c0,0.1-0.1,0.2-0.1,0.2L239.6,114.5z"/>
        <path id="XMLID_41_" d="M252.5,125.2c0.1,0,0.2,0.1,0.2,0.2l0.1,1.1c0,0.1-0.1,0.2-0.2,0.2l-7.3,0.4c-1.4,0.1-2.7-0.3-3.6-1
				c-1-0.8-1.7-2.2-1.8-4c-0.1-1.8,0.4-3.2,1.3-4.2c0.8-0.8,2-1.3,3.5-1.4l7.3-0.4c0.1,0,0.2,0.1,0.2,0.2l0.1,1.1
				c0,0.1-0.1,0.2-0.2,0.2l-7.2,0.4c-1.2,0.1-2.1,0.5-2.8,1.1c-0.7,0.7-1,1.7-0.9,2.9c0.1,1.2,0.5,2.2,1.3,2.8
				c0.7,0.6,1.7,0.8,2.9,0.8L252.5,125.2z"/>
        <path id="XMLID_36_" d="M241.3,129.3c0.1-0.1,0.2-0.1,0.3-0.1l0.9,0.5c0.1,0,0.1,0.1,0,0.2c-0.5,0.7-1.3,1.8-1.3,3.5
				c0,0.9,0.1,1.6,0.5,2.1c0.4,0.6,1,0.9,1.7,0.9c0.9,0,1.5-0.6,2-1.5c0.5-1.1,0.7-2.3,1.4-3.5c0.6-1.1,1.4-1.8,2.8-1.7
				c1,0,1.8,0.4,2.3,1.2c0.6,0.8,0.9,1.9,0.8,3.4c-0.1,1.5-0.5,2.8-1,3.6c-0.1,0.1-0.2,0.1-0.3,0.1l-0.9-0.5
				c-0.1-0.1-0.1-0.1-0.1-0.3c0.6-0.9,0.9-2,1-3c0-1-0.2-1.8-0.6-2.3c-0.3-0.4-0.8-0.6-1.3-0.7c-0.9,0-1.5,0.7-1.9,1.7
				c-0.5,1.2-0.7,2.5-1.5,3.6c-0.5,0.8-1.4,1.6-2.8,1.5c-1.2-0.1-2.1-0.6-2.7-1.4c-0.6-0.8-0.8-1.9-0.8-3.2
				C240,131.4,240.7,130.1,241.3,129.3"/>
        <path id="XMLID_31_" d="M251.9,142.3c0,0.1-0.1,0.2-0.2,0.2l-12-1.3c-0.1,0-0.2-0.1-0.1-0.2l0.1-1.1c0-0.1,0.1-0.2,0.2-0.1
				l12.1,1.3c0.1,0,0.2,0.1,0.2,0.2L251.9,142.3z"/>
        <path id="XMLID_26_" d="M245.5,144.3c3.5,0.6,5.8,4,5.2,7.5c-0.3,1.7-1,2.8-1.6,3.6c-0.1,0.1-0.2,0.1-0.3,0.1l-0.8-0.6
				c-0.1-0.1-0.1-0.2,0-0.3c0.5-0.7,1.2-1.6,1.5-3c0.5-2.7-1.4-5.3-4.1-5.8c-3-0.5-5.4,1.4-5.9,4c-0.3,1.5,0,2.6,0.3,3.4
				c0.1,0.1,0,0.2-0.1,0.2l-1,0.3c-0.1,0-0.2,0-0.2-0.1c-0.4-1-0.6-2.2-0.3-4C238.7,145.9,241.7,143.6,245.5,144.3"/>
        <path id="XMLID_21_" d="M16.9,86.4c-0.7,0.3-1.3,1.3-0.9,2.3c0,0,0.2,0.9,1,1.2c0.6,0.2,1.3-0.3,1.3-0.7c0-0.2-0.1-0.5-0.3-0.6
				c0,0,0.4,0.9-0.5,1.1c-0.9,0.2-1.4-1-1.2-1.7c0.1-0.7,0.7-1.2,1.5-1c0.8,0.1,1.1,0.7,1.2,1.3c0.2,1,0,2.3-0.6,3.1
				c-0.7,0.8-0.8,0.9-1.4,1.5c-0.3,0.3-0.9,0.9-0.9,1.4c0,0-0.1,0.9,0.4,1.6c-0.7,0.4-1,1.3-1,1.3c-0.2,0.4,0.1,1.2,0.3,1.6
				c0.3,0.8,0.4,0.9,0.7,1.9c0.3,1-0.1,2.2-0.7,3.1c-0.4,0.6-0.9,0.9-1.6,0.7c-0.8-0.2-1.1-0.9-1-1.5c0.1-0.7,1.1-1.6,1.8-1
				c0.7,0.5,0,1.2,0,1.2c0.2,0,0.4-0.2,0.5-0.4c0.2-0.4-0.2-1.1-0.9-1.2c-0.9-0.1-1.4,0.7-1.4,0.7c-0.7,0.7-0.6,1.8-0.1,2.4
				c0.2,0.3,1.6,1.4,3.7,0.1c2.1-1.3,2.7-3.9,2.9-4.6c0.1-0.5,0.7-2.6-1-3.8c2-0.5,2.4-2.7,2.5-3.1c0.1-0.7,0.6-3.4-0.8-5.4
				C18.9,85.7,17.2,86.2,16.9,86.4"/>
        <path id="XMLID_16_" d="M95,14c-0.7-0.4-1.8-0.3-2.4,0.6c0,0-0.6,0.6-0.4,1.5c0.2,0.6,1,0.9,1.3,0.6c0.2-0.1,0.4-0.4,0.3-0.6
				c0,0-0.6,0.8-1.2,0.3c-0.7-0.6,0-1.7,0.6-2c0.6-0.3,1.4-0.1,1.7,0.6c0.3,0.7,0.1,1.3-0.4,1.8c-0.7,0.7-1.8,1.4-2.9,1.3
				c-1-0.1-1.2-0.1-2-0.3c-0.5-0.1-1.3-0.2-1.6,0.1c0,0-0.9,0.4-1.1,1.2c-0.7-0.4-1.6,0-1.6,0c-0.5,0.1-0.9,0.8-1.2,1.2
				c-0.4,0.7-0.5,0.9-1.1,1.7c-0.6,0.8-1.8,1.2-2.9,1.2c-0.7,0-1.3-0.2-1.6-0.9c-0.3-0.7,0.1-1.4,0.7-1.7c0.6-0.3,1.9-0.1,1.9,0.9
				c0,0.8-1,0.7-1,0.7c0.1,0.2,0.4,0.2,0.6,0.2c0.5-0.1,0.8-0.8,0.5-1.4c-0.5-0.7-1.3-0.7-1.3-0.7c-1-0.1-1.8,0.6-2,1.4
				c-0.1,0.3-0.2,2.1,2,3.1c2.2,0.9,4.7-0.1,5.4-0.4c0.4-0.2,2.5-0.9,2.5-3c1.6,1.4,3.5,0.4,4,0.2c0.7-0.3,3.1-1.5,3.9-3.8
				C96.7,15.3,95.3,14.2,95,14"/>
        <path id="XMLID_11_" d="M179.7,20.7c-0.2-0.8-1-1.5-2-1.3c0,0-0.9,0-1.3,0.8c-0.3,0.6,0,1.3,0.5,1.4c0.2,0,0.5,0,0.6-0.2
				c0,0-1,0.2-1-0.7c0-0.9,1.3-1.2,1.9-0.9c0.6,0.3,1,0.9,0.7,1.7c-0.3,0.7-0.9,0.9-1.5,0.9c-1,0-2.3-0.4-2.9-1.2
				c-0.6-0.8-0.7-1-1.2-1.7c-0.2-0.4-0.7-1.1-1.2-1.1c0,0-0.9-0.3-1.6,0.1c-0.2-0.8-1.1-1.2-1.1-1.2c-0.4-0.3-1.2-0.1-1.6,0
				c-0.8,0.2-1,0.2-2,0.4c-1,0.1-2.2-0.5-2.9-1.2c-0.5-0.5-0.7-1-0.4-1.8c0.3-0.7,1.1-0.9,1.7-0.7c0.6,0.3,1.4,1.3,0.7,2
				c-0.6,0.6-1.2-0.3-1.2-0.3c-0.1,0.2,0.2,0.5,0.3,0.6c0.4,0.3,1.1,0,1.3-0.6c0.2-0.8-0.4-1.5-0.4-1.5c-0.6-0.8-1.7-0.9-2.4-0.5
				c-0.3,0.2-1.7,1.3-0.8,3.6c0.9,2.3,3.3,3.4,4,3.7c0.4,0.2,2.4,1.2,4-0.3c0.1,2.1,2.2,2.8,2.6,3c0.7,0.3,3.2,1.2,5.4,0.3
				C180,22.8,179.8,21,179.7,20.7"/>
        <path id="XMLID_6_" d="M242.6,91.2c0.4-0.7,0.2-1.8-0.7-2.3c0,0-0.7-0.6-1.5-0.3c-0.6,0.2-0.8,1-0.5,1.4
				c0.1,0.1,0.4,0.3,0.6,0.3c0,0-0.9-0.5-0.3-1.2c0.6-0.7,1.7,0,2,0.6c0.3,0.6,0.1,1.4-0.6,1.7c-0.7,0.4-1.3,0.1-1.8-0.3
				c-0.8-0.7-1.4-1.8-1.4-2.8c0.1-1,0.1-1.2,0.2-2c0.1-0.5,0.2-1.3-0.1-1.6c0,0-0.5-0.8-1.3-1c0.4-0.7,0-1.6,0-1.6
				c-0.1-0.5-0.8-0.9-1.2-1.1c-0.7-0.4-0.9-0.5-1.7-1.1c-0.8-0.6-1.3-1.8-1.4-2.8c-0.1-0.7,0.1-1.3,0.8-1.6c0.7-0.3,1.4,0,1.7,0.6
				c0.3,0.6,0.2,1.9-0.8,1.9c-0.8,0-0.7-1-0.7-1c-0.2,0.1-0.2,0.5-0.2,0.6c0.1,0.5,0.8,0.8,1.4,0.4c0.7-0.5,0.7-1.4,0.7-1.4
				c0.1-1-0.6-1.8-1.4-2c-0.3-0.1-2.1-0.2-3,2.1c-0.8,2.3,0.2,4.7,0.6,5.4c0.2,0.4,1.1,2.4,3.1,2.4c-1.3,1.6-0.2,3.6,0,4
				c0.3,0.7,1.6,3.1,3.9,3.8C241.4,93,242.5,91.6,242.6,91.2"/>
    </symbol>

</svg>
