<svg xmlns="http://www.w3.org/2000/svg">
    <!-- THE SINTESA JIMBARAN -->
    <symbol viewBox="0 0 167 151" id="fleava-logo-sintesa">
        <polygon id="XMLID_139_" points="84.4,110.9 18.2,109.2 84.4,107.5 150.1,109.2"/>
        <path id="XMLID_134_" d="M116.2,26c-0.1-0.2-12.6-16.8-32.1-16.8c-19.7,0-31.8,16.6-32,16.8l-0.2,0.3l3.9,5.1l0.3-0.6
				c0.1-0.2,8.2-14.6,25.4-15.9v48.3c-0.2,0.1-0.3,0.3-0.5,0.4c-1.9,1.6-3.9,3.4-7.1,3.4c-0.4,0-0.8,0-1.1-0.1
				c-3.4-0.5-5.2-2.3-5.7-5.7c-0.5-3.8,1.5-6.2,3.2-8.3c5.4-6.7,5.9-7.9,7.7-12.2c1.8-4.3,1.7-8.3-0.2-11.4c-1.8-2.9-5.1-4.7-8.6-4.7
				c-0.9,0-1.7,0.1-2.5,0.3c-3.2,0.9-6.4,3.3-9.6,7.5L57,32.9l3.4,4.4l0.4-0.6c1.3-1.7,4.4-5.6,8.5-5.4c1.4,0.1,2.5,0.7,3.1,1.8
				c0.9,1.5,1,3.8,0.1,6c-0.6,1.7-2.7,5.7-6.5,9.7c-2.1,2.3-6,6.4-5.6,12.9c0.4,6.3,3.9,10.5,10,11.7c0.8,0.2,1.7,0.3,2.5,0.3
				c5.5,0,9.4-3.8,11.1-5.8c1.7,2.1,5.6,5.8,11.1,5.8c0.8,0,1.7-0.1,2.5-0.3c6-1.2,9.6-5.4,10-11.7c0.4-6.5-3.5-10.7-5.6-12.9
				c-3.8-4.1-5.8-8-6.5-9.7c-0.8-2.2-0.8-4.5,0.1-6c0.7-1.1,1.7-1.7,3.1-1.8c4-0.2,7.2,3.8,8.5,5.4l0.4,0.6l3.4-4.4l-0.2-0.3
				c-3.2-4.2-6.4-6.7-9.6-7.5c-0.8-0.2-1.6-0.3-2.5-0.3c-3.5,0-6.8,1.8-8.6,4.7c-1.9,3.1-2,7.1-0.2,11.4c1.8,4.3,2.3,5.6,7.7,12.2
				c1.7,2.1,3.7,4.5,3.2,8.3c-0.4,3.4-2.3,5.2-5.7,5.7c-0.4,0.1-0.8,0.1-1.1,0.1c-3.1,0-5.2-1.8-7.1-3.4c-0.2-0.1-0.3-0.3-0.5-0.4V15
				c17.7,1.3,25.5,15.5,25.5,15.7l0.3,0.6l3.9-5L116.2,26z"/>
        <path id="XMLID_127_" d="M45.7,137.1c0,0.6,0.2,1.1,0.5,1.5c0.4,0.4,0.8,0.5,1.4,0.5c0.5,0,1-0.1,1.4-0.3c0.4-0.2,0.8-0.5,1.2-0.8
				c0.4-0.3,0.7-0.7,1-1.1c0.3-0.4,0.6-0.9,0.9-1.3c0.3-0.5,0.6-0.9,0.8-1.4c0.3-0.5,0.5-0.9,0.7-1.3c-0.3,0.1-0.7,0.2-1.3,0.3
				c-0.5,0.1-1.1,0.2-1.7,0.3c-0.6,0.1-1.2,0.2-1.8,0.4c-0.6,0.2-1.2,0.4-1.7,0.6c-0.5,0.3-0.9,0.6-1.2,1
				C45.9,136,45.7,136.5,45.7,137.1z M61.6,128.4c-0.4,0.6-0.8,1.1-1.2,1.5c-0.4,0.4-0.8,0.8-1.2,1.1c-0.4,0.3-0.9,0.6-1.4,0.9
				c-0.5,0.2-1.1,0.5-1.8,0.7c-0.5,0.9-1,1.7-1.6,2.5c-0.6,0.8-1.2,1.5-1.9,2.2c-0.7,0.6-1.5,1.1-2.3,1.5c-0.9,0.4-1.8,0.6-2.9,0.6
				c-0.3,0-0.7,0-1.1-0.1c-0.4-0.1-0.7-0.2-1-0.4c-0.3-0.2-0.5-0.4-0.7-0.7c-0.2-0.3-0.3-0.7-0.3-1.1c0-0.6,0.2-1.1,0.5-1.5
				c0.3-0.4,0.8-0.8,1.4-1c0.6-0.3,1.2-0.5,1.9-0.6c0.7-0.2,1.4-0.3,2.2-0.4c0.7-0.1,1.4-0.2,2.1-0.3c0.7-0.1,1.3-0.2,1.8-0.3
				c0.5-0.9,1-1.8,1.5-2.8c0.4-0.9,0.9-1.8,1.3-2.6c0.5-0.8,0.9-1.6,1.4-2.4c0.5-0.8,1-1.5,1.7-2.1c0.6-0.7,1.3-1.2,2.1-1.8
				c0.8-0.5,1.7-1,2.7-1.3v0c-0.6,0-1.3,0-2.2,0c-0.9,0-1.8,0.1-2.7,0.2c-0.9,0.1-1.9,0.3-2.8,0.5c-0.9,0.2-1.7,0.6-2.5,1
				c-0.7,0.4-1.3,0.9-1.8,1.5c-0.5,0.6-0.7,1.3-0.7,2.1c0,0.7,0.1,1.2,0.4,1.5c0.3,0.4,0.7,0.5,1.3,0.5c0.3,0,0.6-0.1,0.9-0.2
				c0.3-0.1,0.6-0.3,0.8-0.6c0.2-0.2,0.4-0.5,0.6-0.9c0.1-0.3,0.2-0.7,0.2-1.1c0-0.2,0-0.4-0.1-0.6c0-0.2-0.1-0.4-0.2-0.5l0.2-0.1
				c0.1,0.2,0.1,0.3,0.2,0.5c0,0.2,0.1,0.4,0.1,0.6c0,0.4-0.1,0.8-0.3,1.2c-0.2,0.4-0.4,0.7-0.7,1c-0.3,0.3-0.7,0.5-1.1,0.7
				c-0.4,0.2-0.9,0.3-1.4,0.3c-0.4,0-0.7-0.1-1.1-0.2c-0.3-0.1-0.6-0.3-0.8-0.5c-0.2-0.2-0.4-0.5-0.5-0.8c-0.1-0.3-0.2-0.7-0.2-1
				c0-0.7,0.2-1.3,0.5-1.8c0.3-0.5,0.7-1,1.3-1.3c0.5-0.4,1.1-0.7,1.8-1c0.7-0.3,1.4-0.5,2.2-0.7c0.7-0.2,1.5-0.3,2.2-0.4
				c0.7-0.1,1.4-0.2,2.1-0.3c0.6-0.1,1.2-0.1,1.6-0.1c0.5,0,0.8,0,1,0c0.9,0,1.6,0,2.1-0.1c0.6-0.1,1-0.1,1.4-0.1
				c0.1,0,0.2,0,0.3,0.1c0.1,0,0.1,0.1,0.1,0.2c0,0.1-0.1,0.2-0.2,0.2c-0.1,0-0.3,0.1-0.6,0.1c-0.2,0-0.4,0-0.6,0c-0.2,0-0.4,0-0.6,0
				c-0.7,0.1-1.3,0.5-1.9,1c-0.6,0.5-1.2,1.2-1.8,1.9c-0.6,0.8-1.1,1.6-1.6,2.5c-0.5,0.9-1,1.8-1.4,2.7c-0.4,0.9-0.9,1.7-1.2,2.5
				c-0.4,0.8-0.8,1.4-1.1,1.9l0,0l0,0c0.6-0.2,1.2-0.4,1.7-0.7c0.5-0.2,0.9-0.5,1.3-0.8c0.4-0.3,0.8-0.7,1.2-1.1
				c0.4-0.4,0.8-0.9,1.2-1.4L61.6,128.4z"/>
        <path id="XMLID_120_" d="M65,122.2c0.2,0,0.4,0.1,0.6,0.3c0.2,0.2,0.3,0.4,0.3,0.7c0,0.3-0.1,0.5-0.3,0.7
				c-0.2,0.2-0.4,0.3-0.7,0.3c-0.3,0-0.5-0.1-0.7-0.2c-0.2-0.2-0.3-0.4-0.3-0.7c0-0.3,0.1-0.6,0.3-0.8
				C64.4,122.3,64.7,122.2,65,122.2z M63.9,126.6c-0.6,1-1.1,1.8-1.5,2.5c-0.4,0.7-0.8,1.3-1,1.8c-0.3,0.5-0.5,0.9-0.6,1.2
				c-0.1,0.3-0.2,0.6-0.2,0.8c0,0.2,0,0.3,0.1,0.4c0.1,0.1,0.1,0.1,0.3,0.1c0.2,0,0.6-0.1,1-0.5c0.5-0.3,1-0.8,1.7-1.6
				c0.3-0.3,0.5-0.6,0.8-0.9c0.3-0.3,0.5-0.6,0.7-0.9c0.2-0.3,0.4-0.5,0.6-0.8c0.2-0.2,0.3-0.4,0.4-0.5l0.2,0.1
				c-0.1,0.2-0.3,0.4-0.5,0.7c-0.2,0.3-0.4,0.6-0.7,0.8c-0.2,0.3-0.5,0.6-0.8,0.9c-0.3,0.3-0.5,0.6-0.8,0.8c-0.7,0.8-1.3,1.3-1.8,1.6
				c-0.5,0.3-1,0.5-1.4,0.5c-0.4,0-0.7-0.1-0.9-0.4c-0.2-0.2-0.3-0.5-0.3-0.9c0-0.3,0-0.5,0.1-0.8c0.1-0.3,0.3-0.6,0.5-1.1
				c0.2-0.4,0.5-0.9,0.9-1.6c0.4-0.6,0.8-1.4,1.4-2.3L63.9,126.6z"/>
        <path id="XMLID_115_" d="M71.1,129.8c0.2-0.3,0.5-0.7,0.8-1.1c0.3-0.4,0.7-0.8,1-1.2c0.4-0.4,0.8-0.7,1.2-0.9
				c0.4-0.3,0.8-0.4,1.2-0.4c0.4,0,0.7,0.1,1,0.4c0.2,0.3,0.4,0.6,0.4,0.9c0,0.4-0.1,0.9-0.4,1.4c-0.3,0.5-0.6,0.9-0.9,1.4
				c-0.3,0.5-0.6,0.9-0.9,1.3c-0.3,0.4-0.4,0.8-0.4,1.2c0,0.1,0,0.3,0.1,0.4c0.1,0.1,0.2,0.1,0.3,0.1c0.5,0,1.3-0.6,2.5-1.8
				c0.5-0.5,0.9-1,1.4-1.6c0.5-0.6,0.8-1.1,1.2-1.5l0.1,0.1c-0.1,0.2-0.3,0.4-0.5,0.7c-0.2,0.2-0.4,0.5-0.6,0.8
				c-0.2,0.3-0.5,0.6-0.7,0.9c-0.3,0.3-0.5,0.6-0.8,0.9c-0.3,0.4-0.7,0.7-0.9,0.9c-0.3,0.3-0.5,0.5-0.8,0.6c-0.2,0.2-0.5,0.3-0.7,0.3
				c-0.2,0.1-0.4,0.1-0.7,0.1c-0.4,0-0.8-0.1-1-0.4c-0.2-0.3-0.4-0.6-0.4-1c0-0.4,0.1-0.9,0.4-1.4c0.3-0.5,0.6-1,0.9-1.4
				c0.3-0.5,0.6-0.9,0.9-1.3c0.3-0.4,0.4-0.7,0.4-1c0-0.2,0-0.3-0.1-0.4c-0.1-0.1-0.2-0.1-0.4-0.1c-0.3,0-0.6,0.1-0.9,0.4
				c-0.3,0.3-0.7,0.6-1.1,1c-0.4,0.4-0.7,0.9-1.1,1.4c-0.4,0.5-0.7,1-1,1.5c-0.3,0.5-0.6,1-0.9,1.4c-0.3,0.4-0.5,0.8-0.6,1.1l-2,0.1
				c0.4-0.7,0.8-1.4,1.2-2c0.4-0.6,0.8-1.2,1.1-1.8c0.3-0.5,0.6-1,0.8-1.4c0.2-0.4,0.3-0.7,0.3-1c0-0.2,0-0.3-0.1-0.4
				c-0.1-0.1-0.2-0.2-0.4-0.2c-0.3,0-0.6,0.1-0.9,0.4c-0.3,0.3-0.7,0.6-1.1,1c-0.4,0.4-0.7,0.9-1.1,1.4c-0.4,0.5-0.7,1-1.1,1.5
				c-0.3,0.5-0.6,1-0.9,1.4c-0.3,0.4-0.5,0.8-0.6,1.1l-1.9,0.1c0.7-1.2,1.4-2.3,2-3.5c0.7-1.1,1.3-2.3,2-3.5l2.2-0.1l-2.5,3.6l0,0
				c0.3-0.3,0.6-0.7,0.9-1.1c0.3-0.4,0.7-0.8,1.1-1.2c0.4-0.4,0.8-0.7,1.2-1c0.4-0.3,0.9-0.4,1.4-0.4c0.3,0,0.6,0.1,0.9,0.3
				c0.2,0.2,0.4,0.5,0.4,0.9c0,0.2,0,0.4-0.1,0.6c-0.1,0.2-0.1,0.4-0.2,0.6c-0.1,0.2-0.2,0.4-0.3,0.6
				C71.3,129.5,71.2,129.6,71.1,129.8L71.1,129.8z"/>
        <path id="XMLID_110_" d="M86,119.8c-0.9,1.4-1.7,2.7-2.4,3.9c-0.7,1.1-1.3,2.1-1.9,3c-0.5,0.8-1,1.6-1.4,2.2
				c-0.4,0.6-0.7,1.2-0.9,1.6c-0.2,0.5-0.4,0.9-0.5,1.2c-0.1,0.3-0.2,0.7-0.2,0.9c0,0.3,0.1,0.5,0.2,0.7c0.1,0.2,0.3,0.3,0.6,0.3
				c0.3,0,0.7-0.1,1-0.3c0.3-0.2,0.6-0.5,0.9-0.8c0.3-0.3,0.6-0.7,0.8-1.1c0.3-0.4,0.5-0.8,0.7-1.2c0.2-0.4,0.3-0.8,0.4-1.1
				c0.1-0.3,0.2-0.6,0.2-0.8c0-0.1,0-0.1,0-0.2c0,0,0-0.1-0.1-0.2c0-0.1,0-0.1-0.1-0.2c0-0.1,0-0.2,0-0.4c0-0.3,0.1-0.5,0.2-0.7
				c0.2-0.2,0.4-0.3,0.6-0.3c0.2,0,0.4,0,0.5,0.1c0.1,0.1,0.2,0.2,0.3,0.4c0.1,0.2,0.1,0.3,0.2,0.5c0,0.2,0,0.4,0,0.6
				c0,0.3,0,0.6-0.1,0.9c0.1,0.2,0.4,0.3,0.6,0.4c0.3,0.1,0.5,0.2,0.8,0.2c0.4,0,0.8-0.1,1.1-0.3c0.3-0.2,0.6-0.5,0.9-0.8l0.1,0.1
				c-0.2,0.4-0.6,0.7-0.9,0.9c-0.4,0.2-0.8,0.3-1.2,0.3c-0.3,0-0.6-0.1-0.8-0.2c-0.2-0.1-0.5-0.3-0.7-0.5c-0.2,0.7-0.5,1.3-0.8,1.9
				c-0.4,0.6-0.8,1.1-1.3,1.5c-0.5,0.4-1.1,0.8-1.7,1c-0.6,0.2-1.2,0.4-1.9,0.4c-0.7,0-1.2-0.2-1.6-0.6c-0.3-0.4-0.5-0.9-0.5-1.5
				c0-0.2,0-0.4,0.1-0.7c0.1-0.2,0.2-0.6,0.4-0.9s0.4-0.8,0.7-1.4c0.3-0.5,0.7-1.2,1.2-2c0.5-0.8,1.1-1.8,1.8-2.9
				c0.7-1.1,1.5-2.4,2.5-3.9L86,119.8z"/>
        <path id="XMLID_103_" d="M88.3,131.7c0,0.4,0.1,0.7,0.2,1c0.1,0.3,0.4,0.4,0.8,0.4c0.3,0,0.5-0.1,0.8-0.3c0.3-0.2,0.6-0.5,0.8-0.8
				c0.3-0.3,0.5-0.7,0.8-1.1c0.2-0.4,0.5-0.8,0.6-1.2c0.2-0.4,0.3-0.8,0.4-1.2c0.1-0.4,0.2-0.7,0.2-0.9c0-0.4-0.1-0.6-0.2-0.8
				c-0.1-0.2-0.4-0.3-0.7-0.3c-0.3,0-0.6,0.1-0.9,0.3c-0.3,0.2-0.6,0.4-0.8,0.7c-0.3,0.3-0.5,0.6-0.8,1c-0.2,0.4-0.4,0.8-0.6,1.2
				c-0.2,0.4-0.3,0.8-0.4,1.1C88.3,131.1,88.3,131.5,88.3,131.7z M93.9,126.7l1.9-0.1c-0.1,0.2-0.3,0.5-0.5,0.9
				c-0.2,0.3-0.4,0.7-0.7,1.1c-0.2,0.4-0.5,0.8-0.8,1.2c-0.3,0.4-0.5,0.8-0.7,1.2c-0.2,0.4-0.4,0.7-0.5,1.1c-0.1,0.3-0.2,0.6-0.2,0.9
				c0,0.3,0.2,0.5,0.5,0.5c0.3,0,0.7-0.2,1.2-0.6c0.5-0.4,1-0.9,1.6-1.5c0.2-0.2,0.5-0.5,0.7-0.8c0.2-0.3,0.5-0.6,0.7-0.9
				c0.2-0.3,0.4-0.5,0.6-0.8c0.2-0.2,0.3-0.4,0.4-0.6l0.1,0.1c-0.3,0.5-0.7,1-1.1,1.5c-0.4,0.6-0.9,1.2-1.5,1.8
				c-0.6,0.6-1.2,1.1-1.8,1.5c-0.6,0.4-1.1,0.6-1.7,0.6c-0.4,0-0.7-0.1-0.9-0.3c-0.2-0.2-0.3-0.5-0.3-0.8c0-0.1,0-0.2,0-0.3
				c0-0.1,0-0.2,0.1-0.2h0c-0.4,0.5-0.8,0.8-1.3,1.2c-0.5,0.3-1,0.5-1.6,0.5c-0.3,0-0.6-0.1-0.8-0.2c-0.2-0.1-0.4-0.3-0.5-0.5
				c-0.1-0.2-0.2-0.4-0.3-0.7c-0.1-0.3-0.1-0.5-0.1-0.8c0-0.6,0.2-1.3,0.5-1.9c0.3-0.6,0.8-1.2,1.3-1.7c0.5-0.5,1.1-0.9,1.7-1.3
				c0.6-0.3,1.2-0.5,1.8-0.5c0.4,0,0.8,0.1,1,0.3c0.2,0.2,0.5,0.5,0.6,0.9L93.9,126.7z"/>
        <path id="XMLID_98_" d="M94.7,133.5c0.6-1.2,1.3-2.3,1.9-3.4c0.7-1.1,1.3-2.3,1.9-3.5l2.1-0.1l-2.5,3.7l0,0
				c0.5-0.6,0.9-1.1,1.3-1.5c0.4-0.4,0.7-0.7,1-0.9c0.3-0.2,0.5-0.4,0.7-0.5c0.2-0.1,0.3-0.2,0.4-0.3c0.1-0.1,0.3-0.3,0.4-0.3
				c0.1-0.1,0.3-0.2,0.4-0.2c0.2,0,0.4-0.1,0.6-0.1c0.2,0,0.5,0,0.9,0c-0.2,0.4-0.5,0.7-0.6,1.1c-0.2,0.4-0.3,0.8-0.3,1.3
				c0,0.6,0.3,0.8,0.8,0.8c0.2,0,0.3,0,0.5-0.1c0.2-0.1,0.3-0.2,0.5-0.3c0.2-0.1,0.3-0.2,0.4-0.4c0.1-0.1,0.3-0.3,0.4-0.4l0.1,0.1
				c-0.3,0.5-0.8,0.8-1.2,1.1c-0.5,0.3-1,0.4-1.5,0.4c-0.5,0-0.9-0.1-1.2-0.4c-0.3-0.3-0.4-0.7-0.4-1.2c0-0.3,0.1-0.7,0.3-1l0,0
				c-0.5,0.4-1,0.8-1.5,1.3c-0.5,0.5-0.9,1-1.3,1.5c-0.4,0.5-0.8,1.1-1.1,1.7c-0.3,0.6-0.6,1.1-0.9,1.7L94.7,133.5z"/>
        <path id="XMLID_91_" d="M105.2,131.7c0,0.4,0.1,0.7,0.2,1c0.1,0.3,0.4,0.4,0.8,0.4c0.3,0,0.5-0.1,0.8-0.3c0.3-0.2,0.6-0.5,0.8-0.8
				c0.3-0.3,0.5-0.7,0.8-1.1c0.2-0.4,0.5-0.8,0.6-1.2c0.2-0.4,0.3-0.8,0.4-1.2c0.1-0.4,0.2-0.7,0.2-0.9c0-0.4-0.1-0.6-0.2-0.8
				c-0.1-0.2-0.4-0.3-0.7-0.3c-0.3,0-0.6,0.1-0.9,0.3c-0.3,0.2-0.6,0.4-0.8,0.7c-0.3,0.3-0.5,0.6-0.8,1c-0.2,0.4-0.4,0.8-0.6,1.2
				c-0.2,0.4-0.3,0.8-0.4,1.1C105.2,131.1,105.2,131.5,105.2,131.7z M110.7,126.7l1.9-0.1c-0.1,0.2-0.3,0.5-0.5,0.9
				c-0.2,0.3-0.4,0.7-0.7,1.1c-0.2,0.4-0.5,0.8-0.8,1.2c-0.3,0.4-0.5,0.8-0.7,1.2c-0.2,0.4-0.4,0.7-0.5,1.1c-0.1,0.3-0.2,0.6-0.2,0.9
				c0,0.3,0.2,0.5,0.5,0.5c0.3,0,0.7-0.2,1.2-0.6c0.5-0.4,1-0.9,1.6-1.5c0.2-0.2,0.5-0.5,0.7-0.8c0.2-0.3,0.5-0.6,0.7-0.9
				c0.2-0.3,0.4-0.5,0.6-0.8c0.2-0.2,0.3-0.4,0.4-0.6l0.1,0.1c-0.3,0.5-0.7,1-1.1,1.5c-0.4,0.6-0.9,1.2-1.5,1.8
				c-0.6,0.6-1.2,1.1-1.8,1.5c-0.6,0.4-1.1,0.6-1.7,0.6c-0.4,0-0.7-0.1-0.9-0.3c-0.2-0.2-0.3-0.5-0.3-0.8c0-0.1,0-0.2,0-0.3
				c0-0.1,0-0.2,0.1-0.2h0c-0.4,0.5-0.8,0.8-1.3,1.2c-0.5,0.3-1,0.5-1.6,0.5c-0.3,0-0.6-0.1-0.8-0.2c-0.2-0.1-0.4-0.3-0.5-0.5
				c-0.1-0.2-0.2-0.4-0.3-0.7c-0.1-0.3-0.1-0.5-0.1-0.8c0-0.6,0.2-1.3,0.5-1.9c0.3-0.6,0.8-1.2,1.3-1.7c0.5-0.5,1.1-0.9,1.7-1.3
				c0.6-0.3,1.2-0.5,1.8-0.5c0.4,0,0.8,0.1,1,0.3c0.2,0.2,0.5,0.5,0.6,0.9L110.7,126.7z"/>
        <path id="XMLID_86_" d="M115.2,130.1c0.2-0.2,0.4-0.6,0.8-1c0.3-0.4,0.7-0.9,1.1-1.3c0.4-0.4,0.9-0.8,1.4-1.1
				c0.5-0.3,1-0.5,1.4-0.5c0.4,0,0.7,0.1,0.9,0.4c0.2,0.2,0.3,0.5,0.3,0.9c0,0.4-0.1,0.9-0.4,1.4c-0.3,0.5-0.6,0.9-0.9,1.4
				c-0.3,0.5-0.6,0.9-0.9,1.3c-0.3,0.4-0.4,0.8-0.4,1.2c0,0.2,0,0.3,0.1,0.4c0.1,0.1,0.2,0.1,0.4,0.1c0.2,0,0.5-0.1,0.9-0.4
				c0.4-0.3,0.9-0.8,1.6-1.6c0.5-0.6,1-1.2,1.5-1.8c0.4-0.6,0.8-1,1-1.3l0.2,0.1c-0.3,0.4-0.7,0.9-1.2,1.5c-0.5,0.6-1,1.2-1.5,1.8
				c-0.6,0.7-1.2,1.2-1.6,1.5c-0.5,0.3-0.9,0.5-1.4,0.5c-0.5,0-0.8-0.1-1-0.4c-0.2-0.3-0.3-0.6-0.3-0.9c0-0.4,0.1-0.9,0.4-1.4
				c0.3-0.5,0.6-0.9,0.9-1.4c0.3-0.5,0.6-0.9,0.9-1.3c0.3-0.4,0.4-0.8,0.4-1.1c0-0.1,0-0.3-0.1-0.4c-0.1-0.1-0.2-0.1-0.4-0.1
				c-0.2,0-0.5,0.1-0.9,0.4c-0.3,0.2-0.7,0.6-1.1,0.9c-0.4,0.4-0.8,0.8-1.1,1.3c-0.4,0.5-0.7,1-1.1,1.5c-0.3,0.5-0.6,1-0.9,1.4
				c-0.3,0.5-0.5,0.9-0.6,1.2l-1.9,0.1c0.7-1.2,1.3-2.3,2-3.4c0.7-1.1,1.3-2.3,2-3.5l2.1-0.1L115.2,130.1L115.2,130.1z"/>
        <path id="XMLID_81_" d="M99.5,81.8c-1,0-1.8,0.1-2,0.1c-0.4,0-1.4-0.1-2.5-0.1c-0.3,0-0.5,0-0.5,0.2c0,0.1,0.1,0.2,0.3,0.2
				c0.3,0,0.8,0,1.1,0.1c0.5,0.2,0.7,0.7,0.7,2.1l0.2,10.4h-0.1c-0.4-0.4-3.2-3.7-4.6-5.3c-3-3.4-6.2-7.1-6.4-7.4
				c-0.4-0.4-0.5-0.7-0.8-0.7c-0.2,0-0.3,0.3-0.3,0.8l-0.2,13.7c0,2-0.1,2.7-0.6,2.9c-0.3,0.1-0.7,0.1-0.9,0.1c-0.2,0-0.3,0-0.3,0.2
				c0,0.2,0.2,0.2,0.5,0.2c1.1,0,2.1-0.1,2.2-0.1c0.4,0,1.2,0.1,2.6,0.1c0.3,0,0.5,0,0.5-0.2c0-0.1-0.1-0.2-0.4-0.2
				c-0.3,0-0.7,0-1.1-0.2c-0.4-0.2-0.7-0.8-0.7-2.6l-0.2-9.7h0.1c0.4,0.4,2.7,3.3,4.9,5.8c2.2,2.4,4.8,5.4,6.1,6.8
				c0.2,0.3,0.5,0.5,0.7,0.5c0.2,0,0.3-0.2,0.3-0.7l0.2-14.6c0-1.3,0.2-1.8,0.8-2c0.2-0.1,0.4-0.1,0.6-0.1c0.2,0,0.4-0.1,0.4-0.2
				C100,81.8,99.7,81.8,99.5,81.8"/>
        <path id="XMLID_76_" d="M115.3,81.6c-0.1,0-0.3,0-0.6,0.1c-0.3,0-0.8,0.1-1.4,0.1h-8.2c-0.7,0-1.5,0-2.1-0.1
				c-0.5,0-0.7-0.3-0.9-0.3c-0.1,0-0.2,0.1-0.2,0.4c0,0.2-0.4,2.3-0.4,2.7c0,0.3,0,0.4,0.2,0.4c0.1,0,0.2-0.1,0.2-0.3
				c0-0.2,0.1-0.5,0.4-0.8c0.3-0.5,0.8-0.6,2-0.7l3.1-0.1v9.5c0,2.1,0,4-0.1,4.9c-0.1,0.7-0.2,1.2-0.6,1.3c-0.2,0-0.4,0.1-0.7,0.1
				c-0.2,0-0.3,0.1-0.3,0.2c0,0.2,0.1,0.2,0.4,0.2c0.8,0,2.1-0.1,2.6-0.1c0.6,0,1.9,0.1,3.3,0.1c0.2,0,0.4-0.1,0.4-0.2
				c0-0.1-0.1-0.2-0.3-0.2c-0.3,0-0.8,0-1.1-0.1c-0.6-0.1-0.7-0.6-0.8-1.3c-0.1-1-0.1-2.8-0.1-5v-9.5l2.6,0.1c1.8,0,2.4,0.7,2.4,1.3
				l0,0.3c0,0.4,0.1,0.5,0.2,0.5c0.1,0,0.2-0.1,0.2-0.4c0-0.6,0.1-2.2,0.1-2.7C115.5,81.8,115.5,81.6,115.3,81.6"/>
        <path id="XMLID_71_" d="M67.2,88.7l-0.6-0.5c-1.7-1.5-2.2-2.3-2.2-3.3c0-1.4,0.9-2.4,2.5-2.4c1.3,0,1.9,0.7,2.3,1.1
				c0.4,0.6,0.5,1.3,0.5,1.5c0,0.3,0.1,0.4,0.2,0.4c0.2,0,0.2-0.2,0.2-0.7c0-1.8,0.1-2.5,0.1-2.8c0-0.2-0.1-0.2-0.3-0.3
				c-0.5-0.2-1.4-0.4-2.8-0.4c-2.9,0-4.8,1.8-4.8,4.4c0,1.9,0.8,3.5,3.1,5.5l1,0.8c1.7,1.5,2,2.6,2,3.7c0,1.2-0.9,2.6-2.8,2.6
				c-1.3,0-2.5-0.6-3-2.3c-0.1-0.4-0.2-0.9-0.2-1.2c0-0.2,0-0.4-0.2-0.4c-0.2,0-0.2,0.3-0.2,0.6c0,0.4-0.1,1.8-0.1,3
				c0,0.5,0.1,0.6,0.4,0.8c0.9,0.4,1.8,0.6,3,0.6c1.1,0,2.3-0.2,3.3-0.9c1.5-1.1,2-2.7,2-4C70.6,92.5,69.7,90.9,67.2,88.7"/>
        <path id="XMLID_66_" d="M80.1,98.9c-0.3,0-0.8,0-1.1-0.1c-0.6-0.1-0.8-0.5-0.8-1.1c-0.1-1-0.1-2.8-0.1-5.1v-4.1c0-3.5,0-4.2,0-4.9
				c0-0.8,0.2-1.2,0.8-1.3c0.2,0,0.4-0.1,0.6-0.1c0.2,0,0.3,0,0.3-0.2c0-0.1-0.2-0.2-0.4-0.2c-0.8,0-2,0.1-2.5,0.1
				c-0.6,0-1.9-0.1-2.7-0.1c-0.3,0-0.5,0-0.5,0.2c0,0.2,0.1,0.2,0.3,0.2c0.2,0,0.5,0,0.7,0.1c0.5,0.1,0.7,0.5,0.7,1.3
				c0,0.7,0,1.4,0,4.9v4.1c0,2.2,0,4.1-0.1,5.1c-0.1,0.7-0.2,1.1-0.6,1.2c-0.2,0-0.4,0.1-0.7,0.1c-0.2,0-0.3,0.1-0.3,0.2
				c0,0.2,0.1,0.2,0.4,0.2c0.8,0,2.1-0.1,2.6-0.1c0.6,0,1.9,0.1,3.2,0.1c0.2,0,0.4-0.1,0.4-0.2C80.4,99,80.3,98.9,80.1,98.9"/>
        <path id="XMLID_61_" d="M145.3,93.1l2.3-6.9c0-0.1,0.1-0.2,0.1-0.2c0.1,0,0.1,0.1,0.1,0.2L150,93c0.4-0.1,0.8-0.2,1.2-0.3
				c0.4-0.1,0.8-0.3,1.2-0.5c-1.5-4.1-3.3-9.2-3.6-10.2c-0.2-0.5-0.3-0.7-0.5-0.7c-0.2,0-0.3,0.3-0.6,0.9l-3.8,10.6
				C144.3,93,144.8,93,145.3,93.1"/>
        <path id="XMLID_56_" d="M144.9,98.9h-0.3c-0.6,0-0.8-0.3-0.8-0.7c0-0.3,0.1-0.8,0.3-1.4l0.5-1.5c-0.5-0.1-1-0.2-1.5-0.3l-0.6,1.7
				c-0.4,1.2-0.8,1.9-1.8,2.1c-0.2,0-0.5,0-0.6,0c-0.2,0-0.2,0-0.2,0.2c0,0.2,0.1,0.2,0.4,0.2c1.1,0,2.2-0.1,2.4-0.1
				c0.6,0,1.5,0.1,2.2,0.1c0.2,0,0.4,0,0.4-0.2C145.2,98.9,145.1,98.9,144.9,98.9"/>
        <path id="XMLID_51_" d="M156.6,98.9c-0.2,0-0.6,0-0.9-0.1c-0.4-0.1-1-0.4-1.8-2.5c-0.2-0.6-0.5-1.4-0.8-2.3
				c-0.4,0.2-0.8,0.4-1.2,0.6c-0.4,0.2-0.8,0.3-1.2,0.4l1.1,3.3c0.1,0.3,0,0.5-0.2,0.5c-0.2,0-0.3,0.1-0.3,0.2c0,0.2,0.2,0.2,0.6,0.2
				c1.7,0,3.2,0,3.9,0c0.8,0,1,0,1-0.2C156.9,98.9,156.8,98.9,156.6,98.9"/>
        <path id="XMLID_46_" d="M136.2,88.7l-0.6-0.5c-1.7-1.5-2.2-2.3-2.2-3.3c0-1.4,0.9-2.4,2.5-2.4c1.3,0,1.9,0.7,2.3,1.1
				c0.4,0.6,0.5,1.3,0.5,1.5c0,0.3,0.1,0.4,0.2,0.4c0.2,0,0.2-0.2,0.2-0.7c0-1.8,0.1-2.5,0.1-2.8c0-0.2-0.1-0.2-0.3-0.3
				c-0.5-0.2-1.4-0.4-2.8-0.4c-2.9,0-4.8,1.8-4.8,4.4c0,1.9,0.8,3.5,3.1,5.5l1,0.8c1.7,1.5,2,2.6,2,3.7c0,1.2-0.9,2.6-2.8,2.6
				c-1.3,0-2.5-0.6-3-2.3c-0.1-0.4-0.2-0.9-0.2-1.2c0-0.2,0-0.4-0.2-0.4c-0.2,0-0.2,0.3-0.2,0.6c0,0.4-0.1,1.8-0.1,3
				c0,0.5,0.1,0.6,0.4,0.8c0.9,0.4,1.8,0.6,3,0.6c1.1,0,2.3-0.2,3.3-0.9c1.5-1.1,1.9-2.7,1.9-4C139.6,92.5,138.7,90.9,136.2,88.7"/>
        <path id="XMLID_41_" d="M156.3,90.2c-1.5,1.3-3.2,2.3-4.9,3c-0.9,0.3-1.8,0.5-2.7,0.6c-0.9,0.1-1.9,0-2.8-0.1
				c-1.9-0.2-3.7-0.7-5.4-1.5c-0.3-0.2-0.7-0.3-1-0.5c0.3,0.6,0.5,1.2,0.6,1.8c1.8,0.8,3.8,1.4,5.8,1.5c1,0.1,2,0.1,3,0
				c1-0.1,2-0.4,3-0.8c3.8-1.6,6.7-4.8,8.6-8.4C159.1,87.4,157.8,88.9,156.3,90.2"/>
        <path id="XMLID_36_" d="M118.4,82.3c0.7,0.2,0.8,0.5,0.9,1.3c0,0.7,0,1.4,0,4.9v2.3c0.8-0.7,1.7-1.3,2.6-1.8v-3v-2.8
				c0-0.2,0-0.2,0.1-0.2c0.4,0,2.6,0,2.9,0.1c1,0.1,1.2,0.4,1.4,0.8c0.1,0.3,0.1,0.7,0.1,0.8c0,0.2,0,0.3,0.2,0.3
				c0.1,0,0.2-0.1,0.2-0.3c0-0.3,0.1-1.3,0.1-1.5c0.1-1.1,0.2-1.3,0.2-1.5c0-0.1,0-0.2-0.1-0.2c-0.1,0-0.2,0.1-0.3,0.1
				c-0.2,0-0.5,0.1-0.9,0.1c-0.4,0-4.5,0-5.2,0c-0.3,0-0.8,0-1.3,0c-0.5,0-1.1,0-1.7,0c-0.3,0-0.5,0-0.5,0.2c0,0.2,0.1,0.2,0.4,0.2
				C117.9,82.2,118.2,82.2,118.4,82.3"/>
        <path id="XMLID_31_" d="M127.5,95.8c-0.1,0-0.2,0.1-0.2,0.3c-0.1,0.9-0.4,1.4-0.9,1.7c-0.5,0.3-1.4,0.3-1.9,0.3
				c-2.1,0-2.4-0.3-2.5-1.9c0-0.7,0-2.8,0-3.6v-1.8v-0.1c-0.9,0.4-1.8,1-2.6,1.6v0.4c0,2.1,0,4-0.1,4.9c-0.1,0.7-0.2,1.2-0.6,1.3
				c-0.2,0-0.4,0.1-0.7,0.1c-0.2,0-0.3,0.1-0.3,0.2c0,0.2,0.1,0.2,0.4,0.2c0.4,0,1,0,1.4,0c0.5,0,1,0,1.2,0c0.6,0,1.3,0,2.2,0.1
				c0.9,0,2,0.1,3.6,0.1c0.8,0,1,0,1.1-0.6c0.1-0.5,0.3-2,0.3-2.6C127.7,96,127.7,95.8,127.5,95.8"/>
        <path id="XMLID_26_" d="M134.7,90.3c-1.6-1.1-3.3-1.9-5.2-1.8c-3.8,0-7.7,1.2-10.8,3.7c2.8-2.9,6.8-4.5,10.8-4.7
				c1-0.1,2.1,0.1,3.1,0.4c1,0.3,1.9,0.8,2.8,1.3L134.7,90.3z"/>
        <path id="XMLID_21_" d="M13.9,83.4l-3.1,0.1c-1.2,0-1.7,0.2-2,0.7c-0.2,0.3-0.3,0.6-0.4,0.8c0,0.2-0.1,0.3-0.2,0.3
				C8,85.2,8,85.1,8,84.9c0-0.4,0.4-2.5,0.4-2.7c0.1-0.3,0.1-0.4,0.2-0.4c0.2,0,0.4,0.2,0.9,0.3c0.6,0.1,1.4,0.1,2.1,0.1h8.2
				c0.7,0,1.1-0.1,1.4-0.1c0.3-0.1,0.5-0.1,0.6-0.1c0.1,0,0.2,0.1,0.2,0.5c0,0.5-0.1,2.1-0.1,2.7c0,0.2-0.1,0.4-0.2,0.4
				c-0.2,0-0.2-0.1-0.2-0.5l0-0.3c0-0.6-0.6-1.2-2.4-1.3l-2.6-0.1v9.5c0,2.1,0,3.9,0.1,4.9c0.1,0.6,0.2,1.2,0.8,1.2
				c0.3,0,0.7,0.1,1.1,0.1c0.2,0,0.3,0.1,0.3,0.2c0,0.2-0.2,0.2-0.4,0.2c-1.4,0-2.7-0.1-3.3-0.1c-0.5,0-1.8,0.1-2.6,0.1
				c-0.3,0-0.4-0.1-0.4-0.2c0-0.1,0.1-0.2,0.3-0.2c0.3,0,0.6,0,0.7-0.1c0.4-0.1,0.5-0.6,0.6-1.3c0.1-1,0.1-2.8,0.1-4.9L13.9,83.4
				L13.9,83.4z"/>
        <path id="XMLID_16_" d="M36.5,89.5c0.1,0,0.1,0,0.1-0.2v-0.5c0-3.5,0-4.2,0-4.9c0-0.8-0.2-1.2-0.9-1.3c-0.2,0-0.5-0.1-0.8-0.1
				c-0.2,0-0.4,0-0.4-0.2c0-0.2,0.1-0.2,0.4-0.2c1.1,0,2.4,0.1,3,0.1c0.5,0,1.8-0.1,2.6-0.1c0.3,0,0.4,0,0.4,0.2
				c0,0.2-0.1,0.2-0.4,0.2c-0.2,0-0.4,0-0.6,0.1c-0.6,0.1-0.7,0.5-0.8,1.3c0,0.7,0,1.4,0,4.9v4.1c0,2.1,0,3.9,0.1,4.9
				c0.1,0.6,0.2,1.2,0.8,1.2c0.3,0,0.7,0.1,1.1,0.1c0.2,0,0.3,0.1,0.3,0.2c0,0.2-0.2,0.2-0.4,0.2c-1.3,0-2.7-0.1-3.2-0.1
				c-0.5,0-1.8,0.1-2.6,0.1c-0.3,0-0.4-0.1-0.4-0.2c0-0.1,0.1-0.2,0.3-0.2c0.3,0,0.6,0,0.7-0.1c0.4-0.1,0.5-0.6,0.6-1.3
				c0.1-1,0.1-2.8,0.1-4.9v-2c0-0.1-0.1-0.1-0.1-0.1h-7.9c-0.1,0-0.1,0-0.1,0.1v2c0,2.1,0,3.9,0.1,4.9c0.1,0.6,0.2,1.2,0.8,1.2
				c0.3,0,0.7,0.1,1.1,0.1c0.2,0,0.3,0.1,0.3,0.2c0,0.2-0.2,0.2-0.4,0.2c-1.3,0-2.7-0.1-3.2-0.1c-0.5,0-1.8,0.1-2.6,0.1
				c-0.3,0-0.4-0.1-0.4-0.2c0-0.1,0.1-0.2,0.3-0.2c0.3,0,0.6,0,0.7-0.1c0.4-0.1,0.5-0.6,0.6-1.3c0.1-1,0.1-2.8,0.1-4.9v-4.1
				c0-3.5,0-4.2,0-4.9c0-0.8-0.2-1.2-0.9-1.3c-0.2,0-0.5-0.1-0.8-0.1c-0.2,0-0.4,0-0.4-0.2c0-0.2,0.1-0.2,0.4-0.2
				c1.1,0,2.4,0.1,3,0.1c0.5,0,1.8-0.1,2.6-0.1c0.3,0,0.4,0,0.4,0.2c0,0.2-0.1,0.2-0.4,0.2c-0.2,0-0.4,0-0.6,0.1
				c-0.6,0.1-0.7,0.5-0.8,1.3c0,0.7,0,1.4,0,4.9v0.5c0,0.1,0.1,0.2,0.1,0.2H36.5z"/>
        <path id="XMLID_11_" d="M46,88.8c0-3.5,0-4.2,0-4.9c0-0.8-0.2-1.2-0.9-1.3c-0.2,0-0.5-0.1-0.8-0.1c-0.2,0-0.4,0-0.4-0.2
				c0-0.2,0.1-0.2,0.5-0.2c0.6,0,1.2,0,1.7,0c0.5,0,1,0,1.3,0c0.7,0,4.8,0,5.2,0c0.4,0,0.7-0.1,0.9-0.1c0.1,0,0.2-0.1,0.3-0.1
				c0.1,0,0.1,0.1,0.1,0.2c0,0.2-0.1,0.4-0.2,1.5c0,0.2-0.1,1.2-0.1,1.5c0,0.1-0.1,0.3-0.2,0.3c-0.1,0-0.2-0.1-0.2-0.3
				c0-0.2,0-0.6-0.1-0.8c-0.1-0.4-0.4-0.7-1.4-0.8c-0.4,0-2.5-0.1-2.9-0.1c-0.1,0-0.1,0.1-0.1,0.2v5.8c0,0.2,0,0.3,0.1,0.3
				c0.5,0,2.8,0,3.3,0c0.5,0,0.8-0.1,1-0.3c0.1-0.2,0.2-0.3,0.3-0.3c0.1,0,0.1,0,0.1,0.2c0,0.1-0.1,0.5-0.2,1.7
				c0,0.5-0.1,1.4-0.1,1.5c0,0.2,0,0.4-0.2,0.4c-0.1,0-0.2-0.1-0.2-0.2c0-0.2,0-0.5-0.1-0.8c-0.1-0.5-0.4-0.8-1.2-0.9
				c-0.4,0-2.4-0.1-2.9-0.1c-0.1,0-0.1,0.1-0.1,0.2v1.8c0,0.8,0,2.9,0,3.6c0,1.6,0.4,1.9,2.5,1.9c0.5,0,1.4,0,2-0.3
				c0.5-0.3,0.8-0.8,0.9-1.7c0-0.3,0.1-0.3,0.2-0.3c0.2,0,0.2,0.2,0.2,0.4c0,0.5-0.2,2.1-0.3,2.6c-0.1,0.6-0.3,0.6-1.1,0.6
				c-1.6,0-2.7,0-3.6-0.1c-0.9,0-1.5-0.1-2.2-0.1c-0.2,0-0.7,0-1.2,0c-0.5,0-1,0-1.4,0c-0.3,0-0.4-0.1-0.4-0.2c0-0.1,0.1-0.2,0.3-0.2
				c0.3,0,0.6,0,0.7-0.1c0.4-0.1,0.5-0.6,0.6-1.3c0.1-1,0.1-2.8,0.1-4.9L46,88.8L46,88.8z"/>
    </symbol>
</svg>
